<mxfile host="app.diagrams.net" agent="Mozilla/5.0 (Windows NT 10.0; Win64; x64) AppleWebKit/537.36 (KHTML, like Gecko) Chrome/129.0.0.0 Safari/537.36" version="24.7.16">
  <diagram name="Strona-1" id="h7ahsYUE06ZaO-BlrBqj">
    <mxGraphModel dx="2876" dy="2272" grid="1" gridSize="10" guides="1" tooltips="1" connect="1" arrows="1" fold="1" page="1" pageScale="1" pageWidth="827" pageHeight="1169" math="0" shadow="0">
      <root>
        <mxCell id="0" />
        <mxCell id="1" parent="0" />
        <mxCell id="sE2k6mWWcmHk--8Fk2K--1" value="Administratorzy" style="ellipse;whiteSpace=wrap;html=1;" vertex="1" parent="1">
          <mxGeometry x="-810" y="-40" width="130" height="80" as="geometry" />
        </mxCell>
        <mxCell id="sE2k6mWWcmHk--8Fk2K--2" value="Tabela Dostawcy" style="rounded=1;whiteSpace=wrap;html=1;" vertex="1" parent="1">
          <mxGeometry x="320" y="-1160" width="120" height="60" as="geometry" />
        </mxCell>
        <mxCell id="sE2k6mWWcmHk--8Fk2K--4" value="Klienci" style="ellipse;whiteSpace=wrap;html=1;" vertex="1" parent="1">
          <mxGeometry x="1110" y="440" width="130" height="80" as="geometry" />
        </mxCell>
        <mxCell id="sE2k6mWWcmHk--8Fk2K--5" value="Pracownicy" style="ellipse;whiteSpace=wrap;html=1;" vertex="1" parent="1">
          <mxGeometry x="1210" y="-40" width="130" height="80" as="geometry" />
        </mxCell>
        <mxCell id="sE2k6mWWcmHk--8Fk2K--6" value="System" style="ellipse;whiteSpace=wrap;html=1;" vertex="1" parent="1">
          <mxGeometry x="-730" y="-740" width="130" height="80" as="geometry" />
        </mxCell>
        <mxCell id="sE2k6mWWcmHk--8Fk2K--7" value="Tabela Dostawcy do Zamówienia" style="rounded=1;whiteSpace=wrap;html=1;" vertex="1" parent="1">
          <mxGeometry x="320" y="-980" width="120" height="60" as="geometry" />
        </mxCell>
        <mxCell id="sE2k6mWWcmHk--8Fk2K--8" value="Tabela Klienci" style="rounded=1;whiteSpace=wrap;html=1;" vertex="1" parent="1">
          <mxGeometry x="320" y="-800" width="120" height="60" as="geometry" />
        </mxCell>
        <mxCell id="sE2k6mWWcmHk--8Fk2K--9" value="Tabela Lokalicacje" style="rounded=1;whiteSpace=wrap;html=1;" vertex="1" parent="1">
          <mxGeometry x="320" y="-620" width="120" height="60" as="geometry" />
        </mxCell>
        <mxCell id="sE2k6mWWcmHk--8Fk2K--10" value="Tabela Magazyny" style="rounded=1;whiteSpace=wrap;html=1;" vertex="1" parent="1">
          <mxGeometry x="320" y="-440" width="120" height="60" as="geometry" />
        </mxCell>
        <mxCell id="sE2k6mWWcmHk--8Fk2K--11" value="Tabela Pracownicy" style="rounded=1;whiteSpace=wrap;html=1;" vertex="1" parent="1">
          <mxGeometry x="320" y="-260" width="120" height="60" as="geometry" />
        </mxCell>
        <mxCell id="sE2k6mWWcmHk--8Fk2K--12" value="Tabela Produkty" style="rounded=1;whiteSpace=wrap;html=1;" vertex="1" parent="1">
          <mxGeometry x="320" y="-80" width="120" height="60" as="geometry" />
        </mxCell>
        <mxCell id="sE2k6mWWcmHk--8Fk2K--13" value="Tabela Sklepy" style="rounded=1;whiteSpace=wrap;html=1;" vertex="1" parent="1">
          <mxGeometry x="320" y="100" width="120" height="60" as="geometry" />
        </mxCell>
        <mxCell id="sE2k6mWWcmHk--8Fk2K--14" value="Tabela Stanowiska" style="rounded=1;whiteSpace=wrap;html=1;" vertex="1" parent="1">
          <mxGeometry x="320" y="280" width="120" height="60" as="geometry" />
        </mxCell>
        <mxCell id="sE2k6mWWcmHk--8Fk2K--15" value="Tabela Typy Dostawy" style="rounded=1;whiteSpace=wrap;html=1;" vertex="1" parent="1">
          <mxGeometry x="320" y="460" width="120" height="60" as="geometry" />
        </mxCell>
        <mxCell id="sE2k6mWWcmHk--8Fk2K--16" value="Tabela Typy Płatności" style="rounded=1;whiteSpace=wrap;html=1;" vertex="1" parent="1">
          <mxGeometry x="320" y="640" width="120" height="60" as="geometry" />
        </mxCell>
        <mxCell id="sE2k6mWWcmHk--8Fk2K--17" value="Tabela Typy Produktu" style="rounded=1;whiteSpace=wrap;html=1;" vertex="1" parent="1">
          <mxGeometry x="320" y="820" width="120" height="60" as="geometry" />
        </mxCell>
        <mxCell id="sE2k6mWWcmHk--8Fk2K--18" value="Tabela Zamówienia" style="rounded=1;whiteSpace=wrap;html=1;" vertex="1" parent="1">
          <mxGeometry x="320" y="1000" width="120" height="60" as="geometry" />
        </mxCell>
      </root>
    </mxGraphModel>
  </diagram>
</mxfile>
